<mxfile host="app.diagrams.net" agent="Mozilla/5.0 (Windows NT 10.0; Win64; x64) AppleWebKit/537.36 (KHTML, like Gecko) Chrome/141.0.0.0 Safari/537.36" version="28.2.5">
  <diagram name="Página-1" id="5-ez6gsuKvCFj5LAixfc">
    <mxGraphModel dx="1042" dy="562" grid="1" gridSize="10" guides="1" tooltips="1" connect="1" arrows="1" fold="1" page="1" pageScale="1" pageWidth="827" pageHeight="1169" math="0" shadow="0" adaptiveColors="none">
      <root>
        <mxCell id="0" />
        <mxCell id="1" parent="0" />
        <mxCell id="O9MkHjMG3DYUt59uSBh6-6" value="" style="edgeStyle=orthogonalEdgeStyle;rounded=0;orthogonalLoop=1;jettySize=auto;html=1;fontColor=light-dark(#000000,#000000);fillColor=none;strokeColor=light-dark(#000000,#000000);" edge="1" parent="1" source="O9MkHjMG3DYUt59uSBh6-1" target="O9MkHjMG3DYUt59uSBh6-5">
          <mxGeometry relative="1" as="geometry" />
        </mxCell>
        <mxCell id="O9MkHjMG3DYUt59uSBh6-8" value="" style="edgeStyle=orthogonalEdgeStyle;rounded=0;orthogonalLoop=1;jettySize=auto;html=1;fontColor=light-dark(#000000,#000000);fillColor=none;strokeColor=light-dark(#000000,#000000);" edge="1" parent="1" source="O9MkHjMG3DYUt59uSBh6-1" target="O9MkHjMG3DYUt59uSBh6-7">
          <mxGeometry relative="1" as="geometry" />
        </mxCell>
        <mxCell id="O9MkHjMG3DYUt59uSBh6-10" value="" style="edgeStyle=orthogonalEdgeStyle;rounded=0;orthogonalLoop=1;jettySize=auto;html=1;fontColor=light-dark(#000000,#000000);fillColor=none;strokeColor=light-dark(#000000,#000000);" edge="1" parent="1" source="O9MkHjMG3DYUt59uSBh6-1" target="O9MkHjMG3DYUt59uSBh6-9">
          <mxGeometry relative="1" as="geometry" />
        </mxCell>
        <mxCell id="O9MkHjMG3DYUt59uSBh6-1" value="SISTEMA SGA" style="ellipse;whiteSpace=wrap;html=1;fillColor=none;fontColor=light-dark(#000000,#000000);strokeColor=light-dark(#000000,#000000);" vertex="1" parent="1">
          <mxGeometry x="350" y="250" width="100" height="100" as="geometry" />
        </mxCell>
        <mxCell id="O9MkHjMG3DYUt59uSBh6-11" style="edgeStyle=orthogonalEdgeStyle;rounded=0;orthogonalLoop=1;jettySize=auto;html=1;entryX=0;entryY=0.5;entryDx=0;entryDy=0;fontColor=light-dark(#000000,#000000);fillColor=none;strokeColor=light-dark(#000000,#000000);" edge="1" parent="1" source="O9MkHjMG3DYUt59uSBh6-5" target="O9MkHjMG3DYUt59uSBh6-1">
          <mxGeometry relative="1" as="geometry">
            <mxPoint x="310" y="150" as="targetPoint" />
            <Array as="points">
              <mxPoint x="300" y="90" />
              <mxPoint x="300" y="300" />
            </Array>
          </mxGeometry>
        </mxCell>
        <mxCell id="O9MkHjMG3DYUt59uSBh6-17" style="edgeStyle=orthogonalEdgeStyle;rounded=0;orthogonalLoop=1;jettySize=auto;html=1;exitX=1;exitY=0.5;exitDx=0;exitDy=0;entryX=1;entryY=0;entryDx=0;entryDy=0;fontColor=light-dark(#000000,#000000);fillColor=none;strokeColor=light-dark(#000000,#000000);" edge="1" parent="1" source="O9MkHjMG3DYUt59uSBh6-5" target="O9MkHjMG3DYUt59uSBh6-1">
          <mxGeometry relative="1" as="geometry">
            <Array as="points">
              <mxPoint x="490" y="90" />
              <mxPoint x="490" y="240" />
              <mxPoint x="435" y="240" />
            </Array>
          </mxGeometry>
        </mxCell>
        <mxCell id="O9MkHjMG3DYUt59uSBh6-5" value="Alunos" style="whiteSpace=wrap;html=1;fillColor=none;fontColor=light-dark(#000000,#000000);strokeColor=light-dark(#000000,#000000);" vertex="1" parent="1">
          <mxGeometry x="340" y="60" width="120" height="60" as="geometry" />
        </mxCell>
        <mxCell id="O9MkHjMG3DYUt59uSBh6-7" value="Professores" style="whiteSpace=wrap;html=1;fillColor=none;fontColor=light-dark(#000000,#000000);strokeColor=light-dark(#000000,#000000);" vertex="1" parent="1">
          <mxGeometry x="620" y="270" width="120" height="60" as="geometry" />
        </mxCell>
        <mxCell id="O9MkHjMG3DYUt59uSBh6-22" value="" style="edgeStyle=orthogonalEdgeStyle;rounded=0;orthogonalLoop=1;jettySize=auto;html=1;entryX=0;entryY=1;entryDx=0;entryDy=0;" edge="1" parent="1" source="O9MkHjMG3DYUt59uSBh6-9" target="O9MkHjMG3DYUt59uSBh6-1">
          <mxGeometry relative="1" as="geometry">
            <mxPoint x="260" y="490" as="targetPoint" />
            <Array as="points">
              <mxPoint x="320" y="490" />
              <mxPoint x="320" y="335" />
            </Array>
          </mxGeometry>
        </mxCell>
        <mxCell id="O9MkHjMG3DYUt59uSBh6-9" value="Gestores" style="whiteSpace=wrap;html=1;fillColor=none;fontColor=light-dark(#000000,#000000);strokeColor=light-dark(#000000,#000000);" vertex="1" parent="1">
          <mxGeometry x="340" y="460" width="120" height="60" as="geometry" />
        </mxCell>
        <mxCell id="O9MkHjMG3DYUt59uSBh6-12" value="Pedido de matrícula" style="text;html=1;align=center;verticalAlign=middle;resizable=0;points=[];autosize=1;rotation=-90;fillColor=none;fontColor=light-dark(#000000,#000000);strokeColor=none;" vertex="1" parent="1">
          <mxGeometry x="220" y="200" width="130" height="30" as="geometry" />
        </mxCell>
        <mxCell id="O9MkHjMG3DYUt59uSBh6-13" value="Consulta de dados" style="text;html=1;align=center;verticalAlign=middle;resizable=0;points=[];autosize=1;fillColor=none;fontColor=light-dark(#000000,#000000);strokeColor=none;" vertex="1" parent="1">
          <mxGeometry x="470" y="270" width="120" height="30" as="geometry" />
        </mxCell>
        <mxCell id="O9MkHjMG3DYUt59uSBh6-14" value="Relatórios" style="text;html=1;align=center;verticalAlign=middle;resizable=0;points=[];autosize=1;rotation=-90;fillColor=none;fontColor=light-dark(#000000,#000000);strokeColor=none;" vertex="1" parent="1">
          <mxGeometry x="350" y="390" width="80" height="30" as="geometry" />
        </mxCell>
        <mxCell id="O9MkHjMG3DYUt59uSBh6-16" value="Validação" style="text;html=1;align=center;verticalAlign=middle;resizable=0;points=[];autosize=1;rotation=-90;fillColor=none;fontColor=light-dark(#000000,#000000);strokeColor=none;" vertex="1" parent="1">
          <mxGeometry x="345" y="178" width="80" height="30" as="geometry" />
        </mxCell>
        <mxCell id="O9MkHjMG3DYUt59uSBh6-18" value="Pagamento" style="text;html=1;align=center;verticalAlign=middle;resizable=0;points=[];autosize=1;rotation=-90;fillColor=none;fontColor=light-dark(#000000,#000000);strokeColor=none;" vertex="1" parent="1">
          <mxGeometry x="430" y="158" width="80" height="30" as="geometry" />
        </mxCell>
        <mxCell id="O9MkHjMG3DYUt59uSBh6-24" value="Turmas disponíveis" style="text;html=1;align=center;verticalAlign=middle;resizable=0;points=[];autosize=1;strokeColor=none;fillColor=none;rotation=-90;" vertex="1" parent="1">
          <mxGeometry x="240" y="400" width="130" height="30" as="geometry" />
        </mxCell>
      </root>
    </mxGraphModel>
  </diagram>
</mxfile>
